<svg xmlns="http://www.w3.org/2000/svg" width="221.514" height="37.68" viewBox="0 0 58.609 9.969"><g aria-label="ITecnium\\" style="line-height:1.25" font-weight="400" font-size="40" font-family="sans-serif" letter-spacing="0" word-spacing="0"><path d="M1.482 1.503h1.725L1.725 8.91H0zM6.203 2.9h-2.37l.285-1.397h6.456L10.288 2.9h-2.36L6.722 8.91H5.007z" fill="#e63946"/><path d="M16.08 5.64q0 .393-.096.869h-4.36q.084 1.164 1.47 1.164.435 0 .826-.138.403-.137.699-.391l.688 1.09q-.476.38-1.09.571-.614.19-1.291.19-.879 0-1.546-.306-.656-.318-1.016-.9-.349-.582-.349-1.344 0-.942.423-1.693.434-.762 1.196-1.185.762-.434 1.736-.434.826 0 1.429.307.614.307.942.878.338.572.338 1.323zm-2.784-1.27q-.582 0-.984.318-.402.307-.572.858h2.826q0-.55-.35-.858-.338-.317-.92-.317zM19.56 8.996q-.878 0-1.534-.318-.656-.317-1.016-.889-.35-.582-.35-1.344 0-.942.445-1.693.444-.751 1.238-1.185.794-.434 1.789-.434.91 0 1.566.38.667.371.995 1.059l-1.397.699q-.37-.773-1.27-.773-.487 0-.878.243-.381.233-.604.657-.211.423-.211.963 0 .582.349.93.35.34.974.34.91 0 1.397-.762l1.217.762q-.413.645-1.133 1.005-.709.36-1.577.36zM27.263 3.133q.952 0 1.513.508.561.497.561 1.428 0 .35-.074.688l-.635 3.154h-1.65l.613-3.048q.042-.18.042-.391 0-.445-.243-.678-.244-.233-.73-.233-.635 0-1.059.37-.413.36-.56 1.09l-.572 2.89h-1.651l1.132-5.694h1.567l-.127.614q.762-.698 1.873-.698zM31.268 3.217h1.64l-1.132 5.694h-1.64zm1.1-.793q-.423 0-.698-.244-.265-.254-.265-.614 0-.423.297-.698.306-.286.793-.286.434 0 .699.244.275.232.275.582 0 .455-.307.74-.307.276-.794.276zM40.187 3.217l-1.132 5.694h-1.567l.117-.614q-.37.35-.847.53-.476.169-1.005.169-.932 0-1.493-.508-.55-.508-.55-1.429 0-.35.074-.688l.625-3.154h1.65l-.603 3.048q-.042.201-.042.413 0 .89.952.89.625 0 1.027-.36.413-.371.561-1.101l.582-2.89zM48.87 3.133q.932 0 1.482.508.55.497.55 1.418 0 .339-.073.698l-.625 3.154h-1.65l.602-3.037q.043-.212.043-.434 0-.434-.233-.656-.222-.223-.667-.223-1.196 0-1.492 1.43l-.582 2.92h-1.651l.603-3.037q.042-.212.042-.424 0-.433-.232-.656-.223-.233-.667-.233-1.196 0-1.503 1.45l-.571 2.9h-1.651l1.132-5.694h1.566l-.127.593q.741-.677 1.789-.677.593 0 1.048.243.465.233.698.688.413-.455.963-.688.55-.243 1.207-.243z" style="-inkscape-font-specification:'Montserrat, Bold Italic';font-variant-ligatures:normal;font-variant-caps:normal;font-variant-numeric:normal;font-feature-settings:normal;text-align:start" font-style="italic" font-weight="700" font-family="Montserrat" fill="#1d3557"/><path d="M53.8 9.97L52.246 0h1.418l1.556 9.97zM57.19 9.97L55.636 0h1.418l1.556 9.97z" fill="#457b9d"/></g></svg>