<?xml version="1.0" encoding="UTF-8" standalone="no"?>
<!-- Created with Inkscape (http://www.inkscape.org/) -->

<svg
   xmlns:dc="http://purl.org/dc/elements/1.1/"
   xmlns:cc="http://creativecommons.org/ns#"
   xmlns:rdf="http://www.w3.org/1999/02/22-rdf-syntax-ns#"
   xmlns:svg="http://www.w3.org/2000/svg"
   xmlns="http://www.w3.org/2000/svg"
   xmlns:sodipodi="http://sodipodi.sourceforge.net/DTD/sodipodi-0.dtd"
   xmlns:inkscape="http://www.inkscape.org/namespaces/inkscape"
   width="58.608845mm"
   height="9.9694996mm"
   viewBox="0 0 58.608845 9.9694996"
   version="1.1"
   id="svg8"
   inkscape:version="0.92.3 (2405546, 2018-03-11)"
   sodipodi:docname="logo1.svg">
  <defs
     id="defs2" />
  <sodipodi:namedview
     id="base"
     pagecolor="#ffffff"
     bordercolor="#666666"
     borderopacity="1.0"
     inkscape:pageopacity="0.0"
     inkscape:pageshadow="2"
     inkscape:zoom="1.4"
     inkscape:cx="14.116271"
     inkscape:cy="5.1381268"
     inkscape:document-units="mm"
     inkscape:current-layer="layer1"
     showgrid="false"
     inkscape:window-width="1366"
     inkscape:window-height="719"
     inkscape:window-x="0"
     inkscape:window-y="0"
     inkscape:window-maximized="1" />
  <metadata
     id="metadata5">
    <rdf:RDF>
      <cc:Work
         rdf:about="">
        <dc:format>image/svg+xml</dc:format>
        <dc:type
           rdf:resource="http://purl.org/dc/dcmitype/StillImage" />
        <dc:title />
      </cc:Work>
    </rdf:RDF>
  </metadata>
  <g
     inkscape:label="Capa 1"
     id="layer1"
     style="display:inline"
     inkscape:groupmode="layer"
     transform="translate(-49.254833,-101.26817)">
    <g
       aria-label="ITecnium\\"
       transform="scale(0.26458333)"
       style="font-style:normal;font-weight:normal;font-size:40px;line-height:1.25;font-family:sans-serif;letter-spacing:0px;word-spacing:0px;fill:#000000;fill-opacity:1;stroke:none"
       id="flowRoot10">
      <path
         d="m 191.76,388.42585 h 6.52 l -5.6,28 h -6.52 z"
         style="fill:#e63946;fill-opacity:1"
         id="path4562"
         inkscape:connector-curvature="0" />
      <path
         d="m 209.605,393.70585 h -8.96 l 1.08,-5.28 h 24.4 l -1.08,5.28 h -8.92 l -4.56,22.72 h -6.48 z"
         style="fill:#e63946;fill-opacity:1"
         id="path4564"
         inkscape:connector-curvature="0" />
      <path
         d="m 246.9325,404.06585 q 0,1.48 -0.36,3.28 h -16.48 q 0.32,4.4 5.56,4.4 1.64,0 3.12,-0.52 1.52,-0.52 2.64,-1.48 l 2.6,4.12 q -1.8,1.44 -4.12,2.16 -2.32,0.72 -4.88,0.72 -3.32,0 -5.84,-1.16 -2.48,-1.2 -3.84,-3.4 -1.32,-2.2 -1.32,-5.08 0,-3.56 1.6,-6.4 1.64,-2.88 4.52,-4.48 2.88,-1.64 6.56,-1.64 3.12,0 5.4,1.16 2.32,1.16 3.56,3.32 1.28,2.16 1.28,5 z m -10.52,-4.8 q -2.2,0 -3.72,1.2 -1.52,1.16 -2.16,3.24 h 10.68 q 0,-2.08 -1.32,-3.24 -1.28,-1.2 -3.48,-1.2 z"
         style="font-style:italic;font-variant:normal;font-weight:bold;font-stretch:normal;font-size:40px;font-family:Montserrat;-inkscape-font-specification:'Montserrat, Bold Italic';font-variant-ligatures:normal;font-variant-caps:normal;font-variant-numeric:normal;font-feature-settings:normal;text-align:start;writing-mode:lr-tb;text-anchor:start;fill:#1d3557;fill-opacity:1"
         id="path4566"
         inkscape:connector-curvature="0" />
      <path
         d="m 260.08875,416.74585 q -3.32,0 -5.8,-1.2 -2.48,-1.2 -3.84,-3.36 -1.32,-2.2 -1.32,-5.08 0,-3.56 1.68,-6.4 1.68,-2.84 4.68,-4.48 3,-1.64 6.76,-1.64 3.44,0 5.92,1.44 2.52,1.4 3.76,4 l -5.28,2.64 q -1.4,-2.92 -4.8,-2.92 -1.84,0 -3.32,0.92 -1.44,0.88 -2.28,2.48 -0.8,1.6 -0.8,3.64 0,2.2 1.32,3.52 1.32,1.28 3.68,1.28 3.44,0 5.28,-2.88 l 4.6,2.88 q -1.56,2.44 -4.28,3.8 -2.68,1.36 -5.96,1.36 z"
         style="font-style:italic;font-variant:normal;font-weight:bold;font-stretch:normal;font-size:40px;font-family:Montserrat;-inkscape-font-specification:'Montserrat, Bold Italic';font-variant-ligatures:normal;font-variant-caps:normal;font-variant-numeric:normal;font-feature-settings:normal;text-align:start;writing-mode:lr-tb;text-anchor:start;fill:#1d3557;fill-opacity:1"
         id="path4568"
         inkscape:connector-curvature="0" />
      <path
         d="m 289.20062,394.58585 q 3.60001,0 5.72,1.92 2.12,1.88 2.12,5.4 0,1.32 -0.28,2.6 l -2.39999,11.92 h -6.24 l 2.31999,-11.52 q 0.16,-0.68 0.16,-1.48 0,-1.68 -0.91999,-2.56 -0.92001,-0.88 -2.76001,-0.88 -2.4,0 -4,1.4 -1.55999,1.36 -2.11999,4.12 l -2.16001,10.92 h -6.24 l 4.28001,-21.52 h 5.91999 l -0.47999,2.32 q 2.88,-2.64 7.07999,-2.64 z"
         style="font-style:italic;font-variant:normal;font-weight:bold;font-stretch:normal;font-size:40px;font-family:Montserrat;-inkscape-font-specification:'Montserrat, Bold Italic';font-variant-ligatures:normal;font-variant-caps:normal;font-variant-numeric:normal;font-feature-settings:normal;text-align:start;writing-mode:lr-tb;text-anchor:start;fill:#1d3557;fill-opacity:1"
         id="path4570"
         inkscape:connector-curvature="0" />
      <path
         d="m 304.33688,394.90585 h 6.19999 l -4.28,21.52 h -6.2 z m 4.15999,-3 q -1.59999,0 -2.64,-0.92 -1,-0.96 -1,-2.32 0,-1.6 1.12,-2.64 1.16,-1.08 3,-1.08 1.64,0 2.64,0.92 1.04001,0.88 1.04001,2.2 0,1.72 -1.16001,2.8 -1.15999,1.04 -3,1.04 z"
         style="font-style:italic;font-variant:normal;font-weight:bold;font-stretch:normal;font-size:40px;font-family:Montserrat;-inkscape-font-specification:'Montserrat, Bold Italic';font-variant-ligatures:normal;font-variant-caps:normal;font-variant-numeric:normal;font-feature-settings:normal;text-align:start;writing-mode:lr-tb;text-anchor:start;fill:#1d3557;fill-opacity:1"
         id="path4572"
         inkscape:connector-curvature="0" />
      <path
         d="m 338.04813,394.90585 -4.28001,21.52 h -5.92 l 0.44,-2.32 q -1.4,1.32 -3.2,2 -1.8,0.64 -3.8,0.64 -3.52,0 -5.64,-1.92 -2.08,-1.92 -2.08,-5.4 0,-1.32 0.28,-2.6 l 2.36,-11.92 h 6.24 l -2.28,11.52 q -0.16,0.76 -0.16,1.56 0,3.36 3.6,3.36 2.36,0 3.88001,-1.36 1.56,-1.4 2.11999,-4.16 l 2.20001,-10.92 z"
         style="font-style:italic;font-variant:normal;font-weight:bold;font-stretch:normal;font-size:40px;font-family:Montserrat;-inkscape-font-specification:'Montserrat, Bold Italic';font-variant-ligatures:normal;font-variant-caps:normal;font-variant-numeric:normal;font-feature-settings:normal;text-align:start;writing-mode:lr-tb;text-anchor:start;fill:#1d3557;fill-opacity:1"
         id="path4574"
         inkscape:connector-curvature="0" />
      <path
         d="m 370.86813,394.58585 q 3.51999,0 5.59999,1.92 2.08001,1.88 2.08001,5.36 0,1.28 -0.28001,2.64 l -2.36,11.92 h -6.24 l 2.28,-11.48 q 0.16,-0.8 0.16,-1.64 0,-1.64 -0.88,-2.48 -0.84,-0.84 -2.52,-0.84 -4.51999,0 -5.64,5.4 l -2.19999,11.04 h -6.24001 l 2.28,-11.48 q 0.16,-0.8 0.16,-1.6 0,-1.64 -0.87999,-2.48 -0.84001,-0.88 -2.52001,-0.88 -4.52,0 -5.67999,5.48 l -2.16001,10.96 h -6.24 l 4.28001,-21.52 h 5.91999 l -0.47999,2.24 q 2.79999,-2.56 6.75999,-2.56 2.24001,0 3.96,0.92 1.76,0.88 2.64,2.6 1.56,-1.72 3.64001,-2.6 2.07999,-0.92 4.56,-0.92 z"
         style="font-style:italic;font-variant:normal;font-weight:bold;font-stretch:normal;font-size:40px;font-family:Montserrat;-inkscape-font-specification:'Montserrat, Bold Italic';font-variant-ligatures:normal;font-variant-caps:normal;font-variant-numeric:normal;font-feature-settings:normal;text-align:start;writing-mode:lr-tb;text-anchor:start;fill:#1d3557;fill-opacity:1"
         id="path4576"
         inkscape:connector-curvature="0" />
      <path
         d="m 389.50125,420.42585 -5.88,-37.68 h 5.36 l 5.88,37.68 z"
         style="fill:#457b9d;fill-opacity:1"
         id="path4578"
         inkscape:connector-curvature="0" />
      <path
         d="m 402.31375,420.42585 -5.88,-37.68 h 5.36 l 5.88,37.68 z"
         style="fill:#457b9d;fill-opacity:1"
         id="path4580"
         inkscape:connector-curvature="0" />
    </g>
  </g>
</svg>
